<?xml version="1.0" encoding="iso-8859-1"?>
<!-- Generator: Adobe Illustrator 27.0.0, SVG Export Plug-In . SVG Version: 6.00 Build 0)  -->
<svg version="1.1" id="Layer_1" xmlns="http://www.w3.org/2000/svg" xmlns:xlink="http://www.w3.org/1999/xlink" x="0px" y="0px"
	 viewBox="0 0 1080 1080" style="enable-background:new 0 0 1080 1080;" xml:space="preserve">
<g>
	<path style="fill:#FFFFFF;" d="M210.762,1063.998c-26.886,0-53.049-11.157-71.783-30.612
		c-18.293-18.998-27.805-44.34-26.784-71.358l32.186-851.668c1-26.479,12.15-50.764,31.396-68.382
		c18.4-16.844,42.172-26.121,66.936-26.121c20.593,0,40.485,6.584,57.527,19.042l688.048,502.957
		c32.229,23.56,46.664,62.359,37.67,101.256c-8.995,38.897-38.996,67.421-78.298,74.44L565.656,781.78l-290.44,257.345
		C256.851,1055.397,234.563,1063.998,210.762,1063.998z"/>
	<path style="fill:#F2F2F2;" d="M242.713,20.856c18.562-0.002,37.552,5.634,54.576,18.078l688.047,502.958
		c66.117,48.331,42.067,152.338-38.555,166.738l-383.388,68.476L271.9,1035.382c-18.419,16.32-40.019,23.616-61.138,23.616
		c-49.165,0-95.734-39.533-93.571-96.782l32.186-851.669C151.397,57.117,195.647,20.862,242.713,20.856 M242.723,10.856v10
		l-0.003-10c-26.025,0.003-50.996,9.746-70.319,27.435c-20.239,18.527-31.965,44.054-33.016,71.879l-32.186,851.668
		c-1.073,28.389,8.935,55.03,28.179,75.016c19.671,20.428,47.147,32.144,75.384,32.144c25.041,0,48.475-9.036,67.769-26.131
		L567.92,786.455l380.619-67.981c21.1-3.769,39.994-13.484,54.64-28.096c13.654-13.623,23.216-30.961,27.65-50.14
		s3.455-38.953-2.833-57.188c-6.744-19.558-19.455-36.582-36.759-49.231L303.19,30.861
		C285.286,17.774,264.377,10.856,242.723,10.856L242.723,10.856z"/>
</g>
<g>
	<path style="fill:#FF4940;" d="M242.723,70.856c8.963,0,17.394,2.841,25.059,8.443l688.047,502.958
		c7.476,5.465,12.672,12.312,15.444,20.351c2.613,7.578,2.993,15.916,1.097,24.112c-1.895,8.196-5.896,15.521-11.571,21.183
		c-6.02,6.006-13.694,9.877-22.811,11.505l-383.388,68.476l-13.843,2.472l-10.525,9.326L238.741,997.959
		c-8.267,7.325-17.681,11.039-27.979,11.039c-11.842,0-23.866-5.145-32.164-13.762c-5.539-5.753-12.021-15.823-11.442-31.132
		l32.186-851.668c0.984-26.024,22.827-41.578,43.375-41.58h0.005H242.723 M242.712,20.856
		c-47.065,0.005-91.316,36.261-93.335,89.692l-32.186,851.668c-2.164,57.249,44.405,96.782,93.571,96.782
		c21.119,0,42.719-7.296,61.138-23.616l291.493-258.277L946.78,708.63c80.623-14.4,104.673-118.407,38.556-166.738L297.288,38.934
		C280.265,26.49,261.274,20.854,242.712,20.856L242.712,20.856z"/>
</g>
</svg>
